<svg height="336" width="512" xmlns="http://www.w3.org/2000/svg"><g fill="none" fill-rule="evenodd"><path d="M503.172 335.724H8.828A8.829 8.829 0 010 326.896V9.104A8.829 8.829 0 018.828.276h494.345a8.829 8.829 0 018.828 8.828v317.792a8.829 8.829 0 01-8.829 8.828z" fill="#384a53" fill-rule="nonzero"/><circle cx="256.5" cy="168" r="150" stroke="#fff" stroke-linejoin="bevel" stroke-width="22.129"/><g fill-rule="nonzero"><path d="M174.38 269.907s21.34-21.315 10.376-27.964c-2.741-5.671-5.482-.978-8.223 9.19-1.566 6.65-2.937-12.515 1.175-13.884 3.915-1.564-13.705-17.209-17.23-18.578-3.719-1.564 3.917-5.084 13.706 4.107 9.593 9.191 9.397 11.734 10.572 10.365 1.175-1.37.392-6.258-1.37-8.41s-9.79-19.36-8.615-18.968c1.175.39 12.334 12.71 15.467 20.924 3.328 8.018 3.132-15.253 3.132-15.253s2.546-9.387 3.72-12.125c1.175-2.737 3.524 6.258 3.524 6.258s1.762 10.951 7.049 14.862c5.286 3.912 3.915-5.28 3.915-5.28l-1.958-44 9.202-8.213s-.979 34.613 4.503 32.658c5.482-1.956 6.461-17.21 6.461-17.21s3.72-24.835 3.524-26.204 4.699-4.107 4.699-4.107l12.334-11.146s-.391 12.32 4.699 14.862c5.09 2.738 5.286-12.711 5.286-12.711l1.762-15.058s66.958-53.778 80.467-56.907c11.747 11.929 11.55 31.68 6.656 37.547-4.698 5.866-48.162 64.338-48.162 64.338s-19.187-1.369-21.536 4.107c-2.35 5.475 16.054 4.106 16.054 4.106l-30.346 40.285c-21.145-8.409-50.317 6.258-53.645 11.538 0 0-2.35 3.324 4.699 3.716 7.048.39 57.168.782 57.168.782l-20.557 5.475s-39.94-.39-43.463-2.346-1.37 3.324-1.37 3.324 7.047 12.32 21.144 15.45c14.096 3.128-14.097-1.565-14.097-1.565s-11.16-2.738-14.292-11.343c-3.132-8.409-3.72 2.347-3.72 2.347s5.678 13.102 15.467 15.84c9.593 2.738-5.678.196-5.678.196s-13.117-5.085-14.292-8.41c-1.174-3.324-3.328 3.716-3.328 3.716s-11.551 14.08-14.684 14.472-.196-.783-.196-.783z" fill="#fff"/><path d="M240.358 190.12s65.196-79.005 88.102-95.04c.98-.587.784.586.784.586s-43.268 56.125-86.536 95.04c-4.895 4.499-2.35-.586-2.35-.586z" fill="#384a53"/></g></g></svg>